<?xml version="1.0" encoding="UTF-8" standalone="no"?> <svg xmlns="http://www.w3.org/2000/svg" xmlns:xlink="http://www.w3.org/1999/xlink" xmlns:serif="http://www.serif.com/" width="100%" height="100%" viewBox="0 0 200 48" version="1.1" xml:space="preserve" style="fill-rule:evenodd;clip-rule:evenodd;stroke-linejoin:round;stroke-miterlimit:2;"> <g transform="matrix(0.24,0,0,0.24,-7.07767e-18,-2.39119)"> <g transform="matrix(1.35385,0,0,1.35385,-0.00159358,0.864935)"> <g transform="matrix(0.912012,0,0,0.912012,0.00169377,6.43993)"> <path d="M62.928,2.741C65.897,1.439 69.564,0.355 72.981,0.564C76.397,0.772 79.564,2.273 83.022,3.731C86.481,5.189 90.231,6.606 93.356,7.397C96.481,8.189 98.981,8.356 102.064,7.731C105.148,7.106 108.815,5.689 112.856,4.022C116.898,2.356 121.314,0.439 125.606,0.314C129.897,0.189 134.064,1.856 140.773,6.314C147.481,10.772 156.731,18.022 165.023,25.731C173.314,33.439 180.648,41.606 186.398,50.022C192.148,58.439 196.315,67.106 198.315,74.398C200.315,81.69 200.148,87.606 199.628,91.543C199.107,95.481 198.231,97.44 197.795,98.419C197.357,99.398 197.357,99.398 197.565,100.98C197.773,102.564 198.19,105.731 198.045,108.835C197.898,111.939 197.19,114.981 194.44,119.48C191.69,123.98 186.898,129.938 178.92,136.293C170.94,142.646 159.773,149.396 148.44,153.938C137.107,158.479 125.606,160.813 112.565,161.646C99.523,162.48 84.94,161.813 72.273,159.907C59.606,158.001 48.855,154.854 41.178,152.292C33.501,149.729 28.896,147.751 24.303,145.032C19.709,142.313 15.126,138.854 11.584,135.563C8.042,132.271 5.542,129.147 3.646,125.021C1.75,120.896 0.458,115.771 0.104,110.854C-0.249,105.938 0.334,101.229 1.219,98.199C2.104,95.167 3.292,93.813 4.094,92.907C4.896,92 5.313,91.541 5.542,91.313C5.771,91.083 5.813,91.083 5.25,90.458C4.687,89.833 3.521,88.583 3.011,85.938C2.5,83.291 2.646,79.25 3.927,74.208C5.208,69.166 7.625,63.124 12.5,54.728C17.374,46.332 24.708,35.582 32.27,27.249C39.833,18.915 47.624,12.999 52.656,9.281C57.688,5.562 59.959,4.042 62.928,2.741Z" style="fill:rgb(229,44,146);"></path> </g> </g> <g transform="matrix(1.35385,0,0,1.35385,-0.00159358,0.864935)"> <g transform="matrix(0.912012,0,0,0.912012,0.00169377,6.43993)"> <path d="M197.042,70.376C197.533,71.754 197.959,73.097 198.315,74.398C200.315,81.69 200.148,87.606 199.628,91.543C199.107,95.481 198.231,97.44 197.795,98.419C197.357,99.398 197.357,99.398 197.565,100.98C197.773,102.564 198.19,105.731 198.045,108.835C197.953,110.783 197.64,112.707 196.739,114.981C196.531,113.537 196.221,112.178 195.795,110.928C193.92,105.428 189.794,102.018 183.513,98.826C177.231,95.632 168.794,92.653 162.7,90.903C156.606,89.154 152.856,88.632 148.378,88.372C143.898,88.112 138.689,88.112 133.305,88.31C127.919,88.507 122.356,88.904 115.648,89.976L115.56,89.991C110.152,90.491 105.931,90.949 101.374,90.915C95.582,90.873 89.249,90.04 80.707,89.457C72.166,88.873 61.415,88.54 52.707,88.498C50.001,88.486 47.491,88.501 45.108,88.585C44.511,88.581 43.912,88.578 43.31,88.573C40.126,88.539 36.866,88.418 32.527,88.983C28.189,89.547 22.772,90.798 17.834,92.589C12.897,94.38 8.438,96.714 5.313,98.443C3.264,99.577 1.787,100.451 0.538,101.242C0.729,100.11 0.961,99.082 1.219,98.199C2.104,95.167 3.292,93.813 4.094,92.907C4.896,92 5.313,91.541 5.542,91.313C5.771,91.083 5.813,91.083 5.25,90.458C4.687,89.833 3.521,88.583 3.011,85.938C2.5,83.291 2.646,79.25 3.927,74.208C4.003,73.909 4.083,73.606 4.167,73.3C5.248,76.02 6.891,78.753 8.605,80.88C10.855,83.672 13.23,85.422 16.459,86.38C19.689,87.339 23.772,87.505 27.897,87.444C32.022,87.38 36.189,87.089 38.72,86.745C41.251,86.402 42.147,86.006 44.345,84.912C46.543,83.819 50.043,82.027 54.168,79.694C58.293,77.361 63.043,74.485 69.335,71.965C75.626,69.444 83.46,67.277 91.106,66.381C98.751,65.485 106.211,65.861 113.814,67.569C121.419,69.277 129.169,72.319 135.585,75.131C142.002,77.944 147.086,80.527 150.711,82.652C154.335,84.777 156.503,86.444 159.356,87.652C162.21,88.861 165.752,89.611 171.189,91.069C176.627,92.527 183.96,94.694 188.906,95.476C193.853,96.258 196.411,95.656 197.557,92.614C198.703,89.572 198.436,84.091 197.052,70.476L197.042,70.376Z" style="fill:rgb(211,24,112);"></path> </g> </g> <g transform="matrix(1.35385,0,0,1.35385,-0.00159358,0.864935)"> <g transform="matrix(0.912012,0,0,0.912012,0.00169377,6.43993)"> <path d="M64.416,70.957C60.332,73.624 54.249,77.79 49.832,80.707C45.416,83.623 42.665,85.29 37.416,85.998C32.166,86.707 24.415,86.457 18.999,84.457C13.582,82.457 10.499,78.707 9.624,74.748C8.749,70.79 10.082,66.623 14.582,59.79C19.082,52.957 26.749,43.457 35.041,34.373C43.332,25.29 52.249,16.623 59.665,12.123C67.082,7.623 72.999,7.29 78.166,8.248C83.332,9.207 87.749,11.457 92.332,12.832C96.915,14.207 101.666,14.707 105.707,14.457C109.749,14.207 113.082,13.207 116.582,11.749C120.082,10.29 123.749,8.373 128.416,8.206C133.082,8.04 138.749,9.624 146.91,14.763C155.07,19.902 165.726,28.597 173.726,39.305C181.726,50.013 187.071,62.735 189.702,71.554C192.333,80.374 192.249,85.29 189.833,88.081C187.416,90.873 182.666,91.54 177.041,90.457C171.416,89.373 164.916,86.54 158.207,82.623C151.499,78.707 144.582,73.707 137.624,69.665C130.666,65.624 123.666,62.54 115.707,60.999C107.749,59.457 98.832,59.457 91.499,60.54C84.166,61.623 78.415,63.79 74.499,65.457C70.582,67.124 68.499,68.29 64.416,70.957Z" style="fill:rgb(240,53,153);"></path> </g> </g> <g transform="matrix(1.35385,0,0,1.35385,-0.00159358,0.864935)"> <g transform="matrix(0.912012,0,0,0.912012,0.00169377,6.43993)"> <path d="M11.145,99.343C15.999,96.04 23.333,92.498 30.332,90.603C37.332,88.707 43.999,88.456 52.707,88.498C61.415,88.54 72.166,88.873 80.707,89.457C89.249,90.04 95.582,90.873 101.374,90.915C107.166,90.957 112.416,90.207 120.249,89.582C128.082,88.957 138.499,88.456 146.999,89.207C155.499,89.957 162.083,91.957 168.833,94.748C175.582,97.54 182.499,101.123 186.083,105.54C189.666,109.957 189.916,115.207 187.875,120.082C185.833,124.957 181.5,129.457 176.042,133.999C170.584,138.541 164,143.124 154.751,146.791C145.501,150.457 133.584,153.207 121.501,154.499C109.417,155.791 97.167,155.624 85.167,154.708C73.167,153.791 61.417,152.124 51.314,150.387C41.212,148.649 32.757,146.84 25.174,142.007C17.591,137.174 10.878,129.315 7.085,123.271C3.291,117.228 2.416,112.999 3.166,109.352C3.916,105.707 6.291,102.644 11.145,99.343Z" style="fill:rgb(240,53,153);"></path> </g> </g> <g transform="matrix(1.35385,0,0,1.35385,-0.00159358,0.864935)"> <g transform="matrix(0.912012,0,0,0.912012,0.00169377,6.43993)"> <path d="M38.003,36.666C38.943,34.231 40.906,30.194 45.489,26.153C50.073,22.111 57.276,18.064 62.127,15.916C66.98,13.768 69.48,13.518 71.23,13.684C72.98,13.851 73.98,14.435 75.938,15.56C77.896,16.684 80.813,18.351 83.313,19.143C85.813,19.935 87.896,19.851 90.605,19.726C93.313,19.601 96.646,19.434 99.688,19.851C102.729,20.268 105.48,21.268 107.354,22.684C109.23,24.101 110.23,25.935 110.771,27.143C111.313,28.351 111.396,28.935 111.313,29.393C111.23,29.851 110.98,30.185 110.48,29.935C109.98,29.685 109.23,28.851 108.271,27.726C107.313,26.601 106.146,25.184 104.771,24.351C103.396,23.518 101.813,23.268 99.48,23.601C97.146,23.934 94.063,24.851 90.688,25.518C87.313,26.185 83.646,26.601 80.646,26.185C77.646,25.768 75.313,24.518 73.23,23.351C71.147,22.185 69.313,21.101 67.23,20.81C65.146,20.518 62.813,21.018 60.396,21.768C57.98,22.518 55.479,23.518 52.688,25.143C49.896,26.768 46.813,29.018 44.313,31.893C41.813,34.768 39.896,38.268 38.813,39.851C37.73,41.435 37.48,41.101 37.313,40.518C37.146,39.935 37.063,39.101 38.003,36.666Z" style="fill:rgb(252,229,239);"></path> </g> </g> <g transform="matrix(1.35385,0,0,1.35385,-0.00159358,0.864935)"> <g transform="matrix(0.912012,0,0,0.912012,0.00169377,6.43993)"> <path d="M149.188,31.06C149.688,30.393 150.646,29.893 152.188,29.976C153.729,30.06 155.855,30.727 158.146,32.08C160.438,33.435 162.896,35.477 165.396,37.935C167.896,40.393 170.438,43.268 171.896,45.435C173.355,47.602 173.73,49.06 173.605,49.893C173.48,50.726 172.855,50.935 172.271,50.768C171.688,50.602 171.146,50.06 170.396,49.143C169.646,48.227 168.688,46.935 167.813,45.581C166.938,44.227 166.146,42.81 165.188,41.81C164.23,40.81 163.104,40.226 161.793,39.977C160.48,39.727 158.979,39.81 157.188,39.498C155.396,39.185 153.313,38.476 151.834,37.393C150.355,36.31 149.479,34.851 149.063,33.706C148.646,32.56 148.688,31.726 149.188,31.06Z" style="fill:rgb(252,229,239);"></path> </g> </g> <g transform="matrix(1.35385,0,0,1.35385,-0.00159358,0.864935)"> <g transform="matrix(0.912012,0,0,0.912012,0.00169377,6.43993)"> <path d="M45.791,105.456C43.895,106.434 40.562,108.101 38.083,110.851C35.603,113.601 33.978,117.435 33.332,121.081C32.687,124.726 33.02,128.185 34.291,131.206C35.562,134.226 37.77,136.81 39.249,138.476C40.728,140.143 41.478,140.893 40.27,140.643C39.062,140.393 35.895,139.143 33.458,136.789C31.02,134.435 29.311,130.977 28.624,127.039C27.937,123.101 28.27,118.684 29.603,115.018C30.937,111.351 33.27,108.434 35.999,106.684C38.728,104.935 41.853,104.351 44.02,104.081C46.186,103.81 47.395,103.851 47.77,104.018C48.145,104.185 47.686,104.476 45.791,105.456Z" style="fill:rgb(252,229,239);"></path> </g> </g> <g transform="matrix(1.35385,0,0,1.35385,-0.00159358,0.864935)"> <g transform="matrix(0.912012,0,0,0.912012,0.00169377,6.43993)"> <path d="M31.353,106.101C31.228,105.642 29.478,106.392 27.437,108.33C25.395,110.267 23.062,113.393 22.27,117.289C21.478,121.184 22.228,125.851 23.353,128.768C24.478,131.684 25.978,132.851 27.124,133.497C28.27,134.143 29.062,134.268 29.353,134.268C29.645,134.268 29.437,134.143 28.624,132.997C27.812,131.851 26.395,129.684 25.687,126.914C24.978,124.142 24.978,120.767 25.561,117.831C26.145,114.892 27.312,112.392 28.645,110.309C29.978,108.226 31.478,106.559 31.353,106.101Z" style="fill:rgb(252,229,239);"></path> </g> </g> <g transform="matrix(1.35385,0,0,1.35385,-0.00159358,0.864935)"> <g transform="matrix(0.912012,0,0,0.912012,0.00169377,6.43993)"> <path d="M83.936,130.807C88.061,132.224 93.894,134.308 101.394,135.682C108.895,137.058 118.061,137.724 127.02,137.933C135.978,138.141 144.728,137.891 151.561,136.475C158.395,135.058 163.311,132.474 167.478,129.307C171.645,126.141 175.062,122.391 176.978,118.974C178.895,115.558 179.312,112.474 178.937,110.016C178.562,107.558 177.395,105.724 176.52,104.516C175.645,103.307 175.061,102.724 176.186,103.265C177.312,103.807 180.145,105.474 181.645,108.391C183.145,111.307 183.312,115.474 180.937,120.016C178.562,124.557 173.645,129.475 168.52,133.266C163.395,137.057 158.061,139.725 152.103,141.349C146.145,142.974 139.561,143.558 131.895,143.474C124.228,143.391 115.478,142.641 108.353,141.391C101.228,140.141 95.727,138.391 90.436,136.058C85.144,133.724 80.061,130.807 78.727,129.725C77.394,128.641 79.811,129.391 83.936,130.807Z" style="fill:rgb(252,229,239);"></path> </g> </g> <g transform="matrix(1.35385,0,0,1.35385,-0.00159358,0.864935)"> <g transform="matrix(0.912012,0,0,0.912012,0.00169377,6.43993)"> <path d="M183.6,79.08C183.6,79.08 175.912,87.455 166.725,86.268C166.725,86.268 171.912,85.893 175.85,83.643C179.787,81.393 183.6,79.08 183.6,79.08Z" style="fill:rgb(208,57,149);"></path> </g> </g> <g transform="matrix(1.35385,0,0,1.35385,-0.00159358,0.864935)"> <g transform="matrix(0.912012,0,0,0.912012,0.00169377,6.43993)"> <path d="M161.161,51.517C161.161,51.517 159.161,61.017 148.661,66.892C148.661,66.892 152.536,63.642 155.224,60.142C157.911,56.642 161.161,51.517 161.161,51.517Z" style="fill:rgb(208,57,149);"></path> </g> </g> <g transform="matrix(1.35385,0,0,1.35385,-0.00159358,0.864935)"> <g transform="matrix(0.912012,0,0,0.912012,0.00169377,6.43993)"> <path d="M141.83,38.402L141.849,37.267C141.849,37.267 142.224,50.142 133.474,56.267C133.474,56.267 136.002,53.492 138.201,49.286C139.988,45.87 141.485,41.264 141.83,38.402Z" style="fill:rgb(208,57,149);"></path> </g> </g> <g transform="matrix(1.35385,0,0,1.35385,-0.00159358,0.864935)"> <g transform="matrix(0.912012,0,0,0.912012,0.00169377,6.43993)"> <path d="M115.807,29.67L115.69,28.767C115.69,28.767 117.94,43.142 111.94,53.017C111.94,53.017 117.297,35.948 115.807,29.67Z" style="fill:rgb(208,57,149);"></path> </g> </g> <g transform="matrix(1.35385,0,0,1.35385,-0.00159358,0.864935)"> <g transform="matrix(0.912012,0,0,0.912012,0.00169377,6.43993)"> <path d="M95.506,23.079L95.502,21.579C95.502,21.579 95.498,43.765 96.752,51.829C96.752,51.829 94.261,39.954 95.506,23.079Z" style="fill:rgb(208,57,149);"></path> </g> </g> <g transform="matrix(1.35385,0,0,1.35385,-0.00159358,0.864935)"> <g transform="matrix(0.912012,0,0,0.912012,0.00169377,6.43993)"> <path d="M77.308,31.322L77.126,29.954C77.126,29.954 79.126,46.205 82.127,50.955C82.127,50.955 76.74,44.564 77.308,31.322Z" style="fill:rgb(208,57,149);"></path> </g> </g> <g transform="matrix(1.35385,0,0,1.35385,-0.00159358,0.864935)"> <g transform="matrix(0.912012,0,0,0.912012,0.00169377,6.43993)"> <path d="M52.793,38.792L52.626,37.205C52.626,37.205 53.626,51.455 60.626,56.455C60.626,56.455 51.212,50.63 52.793,38.792Z" style="fill:rgb(208,57,149);"></path> </g> </g> <g transform="matrix(1.35385,0,0,1.35385,-0.00159358,0.864935)"> <g transform="matrix(0.912012,0,0,0.912012,0.00169377,6.43993)"> <path d="M33.125,52.955C33.125,52.955 33.517,53.566 34.188,54.537C36.425,57.778 41.768,65.031 46.001,66.955C37.988,63.314 37.324,59.242 33.125,52.955Z" style="fill:rgb(208,57,149);"></path> </g> </g> <g transform="matrix(1.35385,0,0,1.35385,-0.00159358,0.864935)"> <g transform="matrix(0.912012,0,0,0.912012,0.00169377,6.43993)"> <path d="M35.876,84.268C35.876,84.268 21.501,79.018 16.501,73.08C16.501,73.08 18.376,77.518 24.126,80.393C29.876,83.268 35.876,84.268 35.876,84.268Z" style="fill:rgb(208,57,149);"></path> </g> </g> <g transform="matrix(1.35385,0,0,1.35385,-0.00159358,0.864935)"> <g transform="matrix(0.912012,0,0,0.912012,0.00169377,6.43993)"> <path d="M147.316,89.491L146.999,89.207C146.999,89.207 152.877,94.27 156.002,100.644C156.002,100.644 148.88,91.898 147.316,89.491Z" style="fill:rgb(208,57,149);"></path> </g> </g> <g transform="matrix(1.35385,0,0,1.35385,-0.00159358,0.864935)"> <g transform="matrix(0.912012,0,0,0.912012,0.00169377,6.43993)"> <path d="M134.554,98.153L133.876,97.675C133.876,97.675 141.876,102.426 140.876,114.676C140.876,114.676 140.701,104.099 134.554,98.153Z" style="fill:rgb(208,57,149);"></path> </g> </g> <g transform="matrix(1.35385,0,0,1.35385,-0.00159358,0.864935)"> <g transform="matrix(0.912012,0,0,0.912012,0.00169377,6.43993)"> <path d="M62.532,75.581C62.033,75.893 55.345,79.581 55.158,80.081C54.97,80.581 54.595,85.706 57.22,86.331C59.845,86.956 65.157,86.894 64.97,86.581C64.783,86.269 61.47,84.269 62.532,75.581Z" style="fill:rgb(237,235,241);"></path> </g> </g> <g transform="matrix(1.35385,0,0,1.35385,-0.00159358,0.864935)"> <g transform="matrix(0.912012,0,0,0.912012,0.00169377,6.43993)"> <path d="M65.232,74.774C68.522,73.357 81.265,68.294 96.408,68.079C96.408,68.079 97.221,83.579 94.409,87.392C94.409,87.392 71.396,87.675 67.533,86.329C64.106,85.136 64.783,79.901 64.487,76.391C64.414,75.513 64.694,75.006 65.232,74.774Z" style="fill:rgb(237,235,241);"></path> </g> </g> <g transform="matrix(1.35385,0,0,1.35385,-0.00159358,0.864935)"> <g transform="matrix(0.912012,0,0,0.912012,0.00169377,6.43993)"> <path d="M116.596,70.202C118.157,70.706 132.783,75.14 134.033,76.827C135.283,78.515 134.003,83.984 132.502,86.296C131.21,88.288 106.876,88.592 100.174,88.218C98.767,88.139 98.588,87.718 98.461,85.482L98.416,72.327C98.404,70.731 98.314,69.305 99.536,68.876C103.696,67.414 113.221,69.113 116.596,70.202Z" style="fill:rgb(237,235,241);"></path> </g> </g> <g transform="matrix(1.35385,0,0,1.35385,-0.00159358,0.864935)"> <g transform="matrix(0.912012,0,0,0.912012,0.00169377,6.43993)"> <path d="M136.254,76.894C136.254,76.894 149.911,80.922 148.816,85.394C149.417,87.613 135.688,86.893 135.348,85.988C134.63,84.08 135.307,78.36 136.254,76.894Z" style="fill:rgb(237,235,241);"></path> </g> </g> <g transform="matrix(1.35385,0,0,1.35385,-0.00159358,0.864935)"> <g transform="matrix(0.912012,0,0,0.912012,0.00169377,6.43993)"> <path d="M111.439,99.799C111.439,99.799 119.064,106.111 116.564,124.861C118.098,119.432 114.027,105.39 111.439,99.799Z" style="fill:rgb(208,57,149);"></path> </g> </g> <g transform="matrix(1.35385,0,0,1.35385,-0.00159358,0.864935)"> <g transform="matrix(0.912012,0,0,0.912012,0.00169377,6.43993)"> <path d="M96.281,99.329C96.281,99.329 95.812,130.083 95.906,129.205C97.507,114.287 97.666,108.303 96.281,99.329Z" style="fill:rgb(208,57,149);"></path> </g> </g> <g transform="matrix(1.35385,0,0,1.35385,-0.00159358,0.864935)"> <g transform="matrix(0.912012,0,0,0.912012,0.00169377,6.43993)"> <path d="M84.371,101.983C84.371,101.983 77.746,107.108 78.246,123.608C79.258,118.124 79.648,113.921 81.106,109.383C81.849,107.073 83.234,104.558 84.371,101.983Z" style="fill:rgb(208,57,149);"></path> </g> </g> <g transform="matrix(1.35385,0,0,1.35385,-0.00159358,0.864935)"> <g transform="matrix(0.912012,0,0,0.912012,0.00169377,6.43993)"> <path d="M60.975,97.341L61.731,96.83C61.731,96.83 52.481,102.08 52.481,117.205C52.481,117.205 56.406,100.602 60.975,97.341Z" style="fill:rgb(208,57,149);"></path> </g> </g> <g transform="matrix(1.35385,0,0,1.35385,-0.00159358,0.864935)"> <g transform="matrix(0.912012,0,0,0.912012,0.00169377,6.43993)"> <path d="M43.753,100.51L47.974,94.27L52.667,88.493C52.667,88.493 47.269,92.134 43.753,100.51Z" style="fill:rgb(208,57,149);"></path> </g> </g> <g transform="matrix(1.35385,0,0,1.35385,-0.00159358,0.864935)"> <g transform="matrix(0.912012,0,0,0.912012,0.00169377,6.43993)"> <path d="M105.232,86.637C109.686,86.475 118.477,86.267 123.186,86.059C127.894,85.85 128.519,85.642 128.873,84.954C129.227,84.267 129.311,83.1 129.102,81.892C128.894,80.684 128.394,79.433 127.394,78.454C126.394,77.475 124.894,76.767 121.456,76.288C118.019,75.808 112.644,75.558 108.998,75.788C105.352,76.017 103.435,76.725 102.221,77.7C101.007,78.674 100.496,79.914 100.319,81.33C100.142,82.747 100.299,84.34 100.393,85.32C100.487,86.298 100.519,86.663 100.591,86.788C100.664,86.913 100.779,86.798 105.232,86.637Z" style="fill:rgb(251,254,255);"></path> </g> </g> <g transform="matrix(1.35385,0,0,1.35385,-0.00159358,0.864935)"> <g transform="matrix(0.912012,0,0,0.912012,0.00169377,6.43993)"> <path d="M94.902,79.371C94.86,78.121 94.735,76.684 94.309,75.746C93.881,74.809 93.152,74.371 90.746,74.319C88.339,74.267 84.256,74.6 81.585,74.936C78.913,75.271 77.653,75.609 75.885,76.082C74.116,76.556 71.84,77.166 70.36,78.064C68.88,78.961 68.195,80.146 68.099,81.308C68.002,82.469 68.494,83.608 69.114,84.469C69.735,85.329 70.485,85.913 73.058,86.173C75.631,86.434 80.027,86.371 83.579,86.309C87.131,86.246 89.84,86.184 91.402,85.934C92.964,85.684 93.381,85.246 93.767,84.684C94.152,84.121 94.506,83.434 94.704,82.559C94.901,81.684 94.943,80.621 94.902,79.371Z" style="fill:rgb(251,254,255);"></path> </g> </g> <g transform="matrix(1.35385,0,0,1.35385,-0.00159358,0.864935)"> <g transform="matrix(0.837501,0,0,0.837501,-48.3376,-9.08277)"> <text x="309.789px" y="112.23px" style="font-family:'AbhayaLibre-Regular', 'Abhaya Libre';font-size:108.027px;">I</text> <text x="344.075px" y="112.23px" style="font-family:'AbhayaLibre-Regular', 'Abhaya Libre';font-size:108.027px;">N</text> <text x="417.892px" y="112.23px" style="font-family:'AbhayaLibre-Regular', 'Abhaya Libre';font-size:108.027px;">U</text> <text x="484.565px" y="112.23px" style="font-family:'AbhayaLibre-Regular', 'Abhaya Libre';font-size:108.027px;">R</text> <text x="551.829px" y="112.23px" style="font-family:'AbhayaLibre-Regular', 'Abhaya Libre';font-size:108.027px;">FACE</text> </g> </g> <g transform="matrix(1.35385,0,0,1.35385,-0.00159358,0.864935)"> <g transform="matrix(0.924322,0,0,0.711017,-40.6023,5.28772)"> <text x="272.596px" y="177.518px" style="font-family:'ProximaNovaA-Semibold', 'Proxima Nova Alt';font-weight:600;font-size:50px;">M<tspan x="361.346px 441.996px 520.046px 595.896px 678.896px " y="177.518px 177.518px 177.518px 177.518px 177.518px ">AKEUP</tspan></text> </g> </g> </g> </svg> 